<?xml version="1.0" encoding="utf-8"?>
<!-- Generator: Adobe Illustrator 28.0.0, SVG Export Plug-In . SVG Version: 6.00 Build 0)  -->
<svg version="1.1" id="Lager_1" xmlns="http://www.w3.org/2000/svg" xmlns:xlink="http://www.w3.org/1999/xlink" x="0px" y="0px"
	 viewBox="0 0 1520 1080" style="enable-background:new 0 0 1520 1080;" xml:space="preserve">
<style type="text/css">
	.st0{fill:#210305;}
	.st1{fill:#FF0000;stroke:#FFFFFF;stroke-miterlimit:10;}
</style>
<g>
	<rect class="st0" width="1520" height="1080"/>
</g>
<polygon class="st1" points="216.4,241.6 255,285.6 313.1,278.7 283.2,329 307.6,382.2 250.6,369.3 207.6,409 202.2,350.7 
	151.2,322.1 204.9,299 "/>
<polygon class="st1" points="1121.7,168.3 1152.2,200.7 1196.1,194 1174.7,233 1194.6,272.7 1151,264.4 1119.3,295.6 1113.8,251.5 
	1074.3,231.1 1114.5,212.2 "/>
<polygon class="st1" points="1356.2,919 1378.8,944.8 1412.9,940.7 1395.3,970.2 1409.7,1001.4 1376.2,993.8 1351,1017.1 
	1347.9,982.9 1318,966.2 1349.5,952.6 "/>
<polygon class="st1" points="214.2,673.6 268.1,696.4 317.4,664.9 312.4,723.2 357.6,760.3 300.6,773.6 279.3,828 249,778 
	190.6,774.5 228.9,730.3 "/>
<polygon class="st1" points="414.2,99.5 436.8,125.3 470.9,121.3 453.4,150.8 467.7,182 434.3,174.4 409.1,197.7 405.9,163.5 
	376,146.7 407.5,133.2 "/>
<polygon class="st1" points="407,278.4 422.6,296.2 446.2,293.4 434.1,313.8 444,335.3 420.9,330.1 403.5,346.2 401.3,322.6 
	380.6,311 402.4,301.6 "/>
<polygon class="st1" points="87.1,55.7 102.7,73.5 126.2,70.8 114.1,91.1 124,112.6 100.9,107.4 83.5,123.5 81.3,99.9 60.7,88.3 
	82.4,79 "/>
<polygon class="st1" points="120.1,890.7 135.7,908.5 159.2,905.8 147.1,926.1 157,947.6 133.9,942.4 116.5,958.5 114.3,934.9 
	93.7,923.3 115.4,914 "/>
<polygon class="st1" points="1281.5,783.3 1293.7,826.1 1335.8,840.2 1298.9,865 1298.5,909.5 1263.5,882.1 1221.1,895.4 
	1236.3,853.6 1210.6,817.4 1255,819 "/>
<polygon class="st1" points="1407.1,55.6 1419.3,98.3 1461.4,112.5 1424.5,137.3 1424,181.7 1389,154.3 1346.6,167.6 1361.9,125.9 
	1336.2,89.6 1380.6,91.2 "/>
<polygon class="st1" points="903.4,75.7 957.3,98.4 1006.6,66.9 1001.6,125.2 1046.8,162.3 989.8,175.6 968.5,230.1 938.2,180 
	879.8,176.6 918.1,132.3 "/>
<polygon class="st1" points="1031.4,784.7 1085.3,807.4 1134.6,775.9 1129.6,834.2 1174.8,871.3 1117.8,884.6 1096.5,939.1 
	1066.2,889 1007.8,885.6 1046.1,841.3 "/>
<polygon class="st1" points="990.1,967.7 1005.7,985.5 1029.2,982.8 1017.1,1003.1 1027,1024.6 1003.9,1019.4 986.5,1035.5 
	984.3,1011.9 963.7,1000.3 985.4,991 "/>
<polygon class="st1" points="265.2,909.5 287.8,935.3 321.9,931.3 304.4,960.8 318.7,992 285.3,984.4 260.1,1007.7 256.9,973.5 
	227,956.7 258.5,943.2 "/>
<polygon class="st1" points="142.2,535.5 164.8,561.3 198.9,557.3 181.4,586.8 195.7,618 162.3,610.4 137.1,633.7 133.9,599.5 
	104,582.7 135.5,569.2 "/>
<polygon class="st1" points="507.2,798.5 534.7,829.8 576,824.9 554.7,860.7 572.2,898.5 531.5,889.4 500.9,917.6 497.1,876.2 
	460.8,855.8 499.1,839.3 "/>
<polygon class="st1" points="780.2,872 807.7,903.3 849.1,898.5 827.8,934.3 845.2,972.1 804.6,962.9 774,991.2 770.2,949.7 
	733.8,929.3 772.1,912.9 "/>
<polygon class="st1" points="1344.2,444 1371.7,475.3 1413.1,470.5 1391.8,506.3 1409.2,544.1 1368.6,534.9 1338,563.2 
	1334.2,521.7 1297.8,501.3 1336.1,484.9 "/>
<polygon class="st1" points="664.2,89 691.7,120.3 733.1,115.5 711.8,151.3 729.2,189.1 688.6,179.9 658,208.2 654.2,166.7 
	617.8,146.3 656.1,129.9 "/>
</svg>
