<?xml version="1.0" encoding="utf-8"?>
<!-- Generator: Adobe Illustrator 28.0.0, SVG Export Plug-In . SVG Version: 6.00 Build 0)  -->
<svg version="1.1" xmlns="http://www.w3.org/2000/svg" xmlns:xlink="http://www.w3.org/1999/xlink" x="0px" y="0px"
	 viewBox="0 0 612 792" style="enable-background:new 0 0 612 792;" xml:space="preserve">
<style type="text/css">
	.st0{opacity:0.42;fill:#EDEDED;}
	.st1{fill:#EDEDED;}
	.st2{opacity:0.54;fill:#EDEDED;}
	.st3{fill:#BE1622;}
	.st4{opacity:0.5;fill:none;stroke:#3C3C3B;stroke-width:0.5;stroke-miterlimit:10;}
</style>
<g id="Lager_1">
</g>
<g id="Lager_2">
	<circle cx="291.5" cy="375.5" r="155"/>
	<path class="st0" d="M283,428c-18,67,14.55,102.91-10,101c-23.54-1.83-73.13-10.16-108.8-65.06
		c-26.35-40.56-29.18-75.88-27.7-76.94c0.66-0.47-4.29-41.38,5.58-34.91c48.84,32.02,91.06,2.12,97.68,12.07
		C276.26,419.04,283,428,283,428z"/>
	<path class="st1" d="M252,390"/>
	<path class="st2" d="M299.33,321.57c24.36-65.41-14.55-102.91,10-101c23.54,1.83,73.13,10.16,108.8,65.06
		c26.35,40.56,29.18,75.88,27.7,76.94c-0.66,0.47,4.29,41.38-5.58,34.91c-48.84-32.02-80.1-1.48-94.92-10.91
		C298.36,356.68,299.33,321.57,299.33,321.57z"/>
	<circle class="st3" cx="291.5" cy="375.5" r="53.4"/>
	<circle class="st4" cx="291.5" cy="375.5" r="122.45"/>
	<circle class="st4" cx="291.5" cy="375.5" r="95.79"/>
	<circle class="st4" cx="291.5" cy="375.5" r="143.01"/>
	<g>
		<path d="M270.2,375.24l1.35-6.79c0.01-0.06,0.02-0.12,0.02-0.19c0-0.24-0.15-0.42-0.45-0.56c-0.19-0.09-0.28-0.18-0.28-0.27
			c0-0.04,0-0.08,0.01-0.12v-0.14c0-0.26,0.01-0.43,0.04-0.49c0.03-0.07,0.1-0.1,0.21-0.1h2.17c0.1,0,0.16,0.03,0.18,0.08
			s0.03,0.2,0.03,0.43c0,0.27-0.01,0.44-0.02,0.51c-0.01,0.06-0.05,0.12-0.12,0.16c-0.18,0.12-0.29,0.22-0.33,0.3
			c-0.05,0.08-0.11,0.3-0.18,0.65l-2.29,11.42l-0.14,0.69c-0.01,0.06-0.07,0.1-0.18,0.1h-1.77c-0.08,0-0.13-0.04-0.18-0.11
			s-0.1-0.3-0.18-0.69l-2.29-11.68c-0.05-0.29-0.19-0.51-0.42-0.64c-0.12-0.07-0.19-0.12-0.22-0.16c-0.03-0.04-0.04-0.12-0.04-0.24
			c0-0.04,0-0.08,0.01-0.12c0.01-0.06,0.01-0.12,0.01-0.18c0-0.04,0-0.08-0.01-0.11v-0.12c0-0.19,0.07-0.29,0.21-0.29h4
			c0.13,0,0.2,0.12,0.2,0.37c0,0.01-0.01,0.17-0.02,0.51c-0.01,0.08-0.07,0.14-0.18,0.19c-0.26,0.12-0.39,0.32-0.39,0.59
			c0,0.06,0.01,0.14,0.03,0.22L270.2,375.24z"/>
		<path d="M273.81,369.62v-0.58c0-0.19,0.12-0.29,0.35-0.29h2.8c0.2,0,0.3,0.1,0.3,0.29v10.11c0,0.14,0.01,0.23,0.03,0.27
			c0.02,0.04,0.07,0.08,0.16,0.11c0.21,0.08,0.31,0.26,0.31,0.54c0,0.32-0.01,0.52-0.04,0.58s-0.12,0.1-0.28,0.1h-3.4
			c-0.08-0.01-0.13-0.05-0.16-0.11s-0.04-0.22-0.04-0.49c0-0.32,0.08-0.5,0.23-0.55c0.19-0.06,0.28-0.18,0.28-0.35v-8.76
			c0-0.34-0.13-0.54-0.38-0.62C273.86,369.85,273.81,369.76,273.81,369.62z M276.27,366.26c0.66,0,0.99,0.22,0.99,0.67
			c0,0.35-0.22,0.65-0.66,0.89s-0.94,0.36-1.51,0.36c-0.73,0-1.09-0.24-1.09-0.73c0-0.39,0.25-0.68,0.76-0.89
			S275.77,366.26,276.27,366.26z"/>
		<path d="M281.87,369.95c0.7-0.88,1.49-1.32,2.39-1.32c0.61,0,1.08,0.2,1.4,0.59c0.32,0.4,0.49,0.89,0.49,1.49v8.42
			c0,0.19,0.07,0.33,0.22,0.43c0.13,0.08,0.2,0.29,0.2,0.63c0,0.27-0.02,0.43-0.07,0.48s-0.14,0.08-0.28,0.08h-2.47
			c-0.35-0.3-0.53-0.69-0.53-1.17v-8.36c0-0.46-0.19-0.69-0.56-0.69c-0.25,0-0.51,0.13-0.8,0.39v8.2c0,0.21,0.1,0.38,0.31,0.49
			c0.12,0.07,0.18,0.2,0.18,0.39v0.45c0,0.2-0.14,0.3-0.43,0.3h-3.12c-0.15,0-0.25-0.02-0.29-0.07s-0.06-0.15-0.06-0.33v-0.33
			c0-0.17,0.05-0.29,0.16-0.36c0.14-0.1,0.23-0.19,0.27-0.28s0.06-0.28,0.06-0.58v-8.6c0-0.21-0.1-0.35-0.3-0.45
			c-0.11-0.05-0.17-0.15-0.17-0.28v-0.47c0-0.18,0.08-0.27,0.25-0.27h2.87c0.12,0,0.2,0.02,0.23,0.05s0.04,0.11,0.04,0.22V369.95z"
			/>
		<path d="M291.5,375.5l0.88-4.63c0.02-0.07,0.03-0.12,0.03-0.16c0.04-0.18,0.06-0.29,0.06-0.34c0-0.15-0.1-0.31-0.31-0.47
			c-0.1-0.08-0.16-0.16-0.18-0.26c-0.02-0.1-0.03-0.3-0.03-0.6c0-0.19,0.08-0.28,0.25-0.28h1.51c0.17,0,0.29,0.04,0.35,0.11
			s0.09,0.25,0.09,0.55c0,0.18-0.01,0.28-0.03,0.31s-0.09,0.08-0.2,0.17c-0.16,0.11-0.28,0.37-0.36,0.77l-1.47,7.73
			c-0.26,1.35-0.45,2.21-0.58,2.6s-0.32,0.73-0.59,1.03s-0.58,0.53-0.94,0.68s-0.78,0.23-1.25,0.23c-0.52,0-0.91-0.12-1.19-0.36
			s-0.42-0.56-0.42-0.95c0-0.29,0.09-0.52,0.28-0.69s0.42-0.25,0.69-0.25c0.41,0,0.7,0.24,0.87,0.72c0.08,0.23,0.2,0.35,0.36,0.35
			c0.3,0,0.45-0.16,0.45-0.47c0-0.1-0.06-0.43-0.18-0.98l-1.88-9.11c-0.09-0.44-0.16-0.74-0.22-0.91s-0.15-0.28-0.26-0.33
			c-0.11-0.05-0.16-0.16-0.16-0.33v-0.49c0-0.16,0.02-0.27,0.07-0.31s0.14-0.06,0.27-0.06h3.09c0.16,0,0.27,0.02,0.33,0.06
			s0.08,0.12,0.08,0.26c0,0.29-0.01,0.47-0.04,0.56s-0.09,0.16-0.2,0.2c-0.18,0.07-0.26,0.22-0.26,0.44c0,0.13,0.02,0.3,0.06,0.5
			L291.5,375.5z"/>
		<path d="M294.79,367.29v-0.44c0-0.19,0.12-0.28,0.37-0.28h2.72c0.15,0,0.24,0.01,0.29,0.04s0.07,0.12,0.07,0.3v12.28
			c0,0.27,0.09,0.44,0.26,0.5c0.12,0.05,0.18,0.15,0.18,0.3v0.5c0,0.18-0.13,0.27-0.4,0.27h-3.23c-0.18,0-0.27-0.09-0.27-0.27v-0.5
			c0-0.21,0.09-0.36,0.27-0.46c0.12-0.06,0.19-0.11,0.22-0.16s0.04-0.15,0.04-0.29v-10.89c0-0.21-0.08-0.34-0.24-0.41
			C294.88,367.68,294.79,367.52,294.79,367.29z"/>
		<path d="M306.38,375.68h0.75c0.19,0,0.31,0.03,0.37,0.1s0.09,0.19,0.09,0.39v0.52c0,0.15-0.02,0.25-0.07,0.31
			s-0.16,0.08-0.33,0.08h-0.8v1.65c0,0.39,0.17,0.68,0.5,0.85c0.18,0.09,0.27,0.26,0.27,0.49v0.4c0,0.13-0.02,0.21-0.07,0.25
			s-0.16,0.05-0.33,0.05h-3.7c-0.18,0-0.28-0.03-0.33-0.09s-0.06-0.27-0.06-0.62c0-0.21,0.09-0.37,0.26-0.47
			c0.22-0.13,0.33-0.31,0.33-0.54v-1.98h-3.48c-0.19,0-0.3-0.02-0.33-0.07s-0.05-0.15-0.05-0.3l0-1.02c0-0.11,0.01-0.19,0.03-0.25
			s0.14-0.28,0.38-0.65l4.94-7.9c0.09-0.14,0.2-0.23,0.32-0.28c0.13-0.05,0.36-0.07,0.69-0.07c0.32,0,0.51,0.02,0.56,0.06
			s0.07,0.14,0.07,0.31V375.68z M303.27,371.37l-2.7,4.31h2.7V371.37z"/>
		<path d="M308.73,370.1c-0.08-0.04-0.13-0.06-0.18-0.08c-0.15-0.06-0.24-0.13-0.28-0.19s-0.06-0.19-0.06-0.38
			c0-0.11,0-0.19-0.01-0.26c0-0.18,0.02-0.29,0.08-0.35c0.05-0.06,0.16-0.08,0.33-0.08h2.73c0.13,0,0.22,0.02,0.25,0.06
			s0.04,0.14,0.04,0.3v8.66c0,0.76,0.21,1.13,0.62,1.13c0.32,0,0.56-0.13,0.72-0.4v-8.13c0-0.21-0.1-0.38-0.31-0.49
			c-0.1-0.06-0.16-0.12-0.18-0.19s-0.03-0.29-0.03-0.68c0-0.17,0.1-0.25,0.3-0.25h2.87c0.12,0,0.2,0.02,0.22,0.05
			c0.03,0.04,0.04,0.13,0.04,0.28v10.07c0,0.19,0.08,0.33,0.24,0.4c0.19,0.11,0.29,0.28,0.29,0.53c0,0.35-0.01,0.55-0.04,0.6
			c-0.03,0.05-0.12,0.07-0.28,0.07h-2.67c-0.17,0-0.29-0.03-0.35-0.09s-0.1-0.19-0.1-0.4v-0.22c0-0.23,0-0.37-0.01-0.4
			c-0.93,0.82-1.72,1.23-2.36,1.23c-0.55,0-1.01-0.18-1.36-0.55c-0.35-0.37-0.53-1.08-0.53-2.14V370.1z"/>
	</g>
</g>
</svg>
