<?xml version="1.0" encoding="utf-8"?>
<!-- Generator: Adobe Illustrator 28.0.0, SVG Export Plug-In . SVG Version: 6.00 Build 0)  -->
<svg version="1.1" id="Lager_1" xmlns="http://www.w3.org/2000/svg" xmlns:xlink="http://www.w3.org/1999/xlink" x="0px" y="0px"
	 viewBox="0 0 316.5 324.2" style="enable-background:new 0 0 316.5 324.2;" xml:space="preserve">
<style type="text/css">
	.st0{opacity:0.42;fill:#EDEDED;enable-background:new    ;}
	.st1{fill:#EDEDED;}
	.st2{opacity:0.54;fill:#EDEDED;enable-background:new    ;}
	.st3{fill:#BE1622;}
	.st4{opacity:0.5;fill:none;stroke:#3C3C3B;stroke-width:0.5;stroke-miterlimit:10;enable-background:new    ;}
</style>
<g id="Lager_1_00000103985194106851984870000004693543115777551291_">
</g>
<g id="Lager_2_00000098178832902322647060000009357566635361222017_">
	<circle cx="155.7" cy="161.5" r="155"/>
	<path class="st0" d="M147.2,214c-18,67,14.5,102.9-10,101C113.6,313.2,64,304.9,28.4,250C2,209.4-0.8,174.1,0.7,173
		c0.7-0.5-4.3-41.4,5.6-34.9c48.8,32,91.1,2.1,97.7,12.1C140.4,205.1,147.2,214,147.2,214z"/>
	<path class="st1" d="M116.2,176"/>
	<path class="st2" d="M163.5,107.6c24.4-65.4-14.5-102.9,10-101c23.5,1.8,73.1,10.2,108.8,65.1c26.4,40.6,29.2,75.9,27.7,76.9
		c-0.7,0.5,4.3,41.4-5.6,34.9c-48.8-32-80.1-1.5-94.9-10.9C162.5,142.7,163.5,107.6,163.5,107.6z"/>
	<circle class="st3" cx="155.7" cy="161.5" r="53.4"/>
	<circle class="st4" cx="155.7" cy="161.5" r="122.5"/>
	<circle class="st4" cx="155.7" cy="161.5" r="95.8"/>
	<circle class="st4" cx="155.7" cy="161.5" r="143"/>
	<g>
		<path d="M134.4,161.3l1.4-6.8c0-0.1,0-0.1,0-0.2c0-0.2-0.1-0.4-0.5-0.6c-0.2-0.1-0.3-0.2-0.3-0.3c0,0,0-0.1,0-0.1v-0.1
			c0-0.3,0-0.4,0-0.5c0-0.1,0.1-0.1,0.2-0.1h2.2c0.1,0,0.2,0,0.2,0.1s0,0.2,0,0.4c0,0.3,0,0.4,0,0.5c0,0.1,0,0.1-0.1,0.2
			c-0.2,0.1-0.3,0.2-0.3,0.3c0,0.1-0.1,0.3-0.2,0.6l-2.3,11.4l-0.1,0.7c0,0.1-0.1,0.1-0.2,0.1h-1.8c-0.1,0-0.1,0-0.2-0.1
			s-0.1-0.3-0.2-0.7l-2.3-11.7c0-0.3-0.2-0.5-0.4-0.6c-0.1-0.1-0.2-0.1-0.2-0.2s0-0.1,0-0.2c0,0,0-0.1,0-0.1c0-0.1,0-0.1,0-0.2
			c0,0,0-0.1,0-0.1v-0.1c0-0.2,0.1-0.3,0.2-0.3h4c0.1,0,0.2,0.1,0.2,0.4c0,0,0,0.2,0,0.5c0,0.1-0.1,0.1-0.2,0.2
			c-0.3,0.1-0.4,0.3-0.4,0.6c0,0.1,0,0.1,0,0.2L134.4,161.3z"/>
		<path d="M138,155.7v-0.6c0-0.2,0.1-0.3,0.4-0.3h2.8c0.2,0,0.3,0.1,0.3,0.3v10.1c0,0.1,0,0.2,0,0.3c0,0,0.1,0.1,0.2,0.1
			c0.2,0.1,0.3,0.3,0.3,0.5c0,0.3,0,0.5,0,0.6s-0.1,0.1-0.3,0.1h-3.4c-0.1,0-0.1,0-0.2-0.1s0-0.2,0-0.5c0-0.3,0.1-0.5,0.2-0.5
			c0.2-0.1,0.3-0.2,0.3-0.4v-8.8c0-0.3-0.1-0.5-0.4-0.6C138,155.9,138,155.8,138,155.7z M140.4,152.3c0.7,0,1,0.2,1,0.7
			c0,0.4-0.2,0.6-0.7,0.9s-0.9,0.4-1.5,0.4c-0.7,0-1.1-0.2-1.1-0.7c0-0.4,0.2-0.7,0.8-0.9S139.9,152.3,140.4,152.3z"/>
		<path d="M146,156c0.7-0.9,1.5-1.3,2.4-1.3c0.6,0,1.1,0.2,1.4,0.6c0.3,0.4,0.5,0.9,0.5,1.5v8.4c0,0.2,0.1,0.3,0.2,0.4
			c0.1,0.1,0.2,0.3,0.2,0.6c0,0.3,0,0.4-0.1,0.5s-0.1,0.1-0.3,0.1h-2.5c-0.4-0.3-0.5-0.7-0.5-1.2v-8.4c0-0.5-0.2-0.7-0.6-0.7
			c-0.2,0-0.5,0.1-0.8,0.4v8.2c0,0.2,0.1,0.4,0.3,0.5c0.1,0.1,0.2,0.2,0.2,0.4v0.5c0,0.2-0.1,0.3-0.4,0.3H143c-0.1,0-0.2,0-0.3-0.1
			s-0.1-0.1-0.1-0.3v-0.3c0-0.2,0-0.3,0.2-0.4c0.1-0.1,0.2-0.2,0.3-0.3s0.1-0.3,0.1-0.6v-8.6c0-0.2-0.1-0.4-0.3-0.5
			c-0.1,0-0.2-0.1-0.2-0.3V155c0-0.2,0.1-0.3,0.2-0.3h2.9c0.1,0,0.2,0,0.2,0s0,0.1,0,0.2L146,156L146,156z"/>
		<path d="M155.7,161.5l0.9-4.6c0-0.1,0-0.1,0-0.2c0-0.2,0.1-0.3,0.1-0.3c0-0.1-0.1-0.3-0.3-0.5c-0.1-0.1-0.2-0.2-0.2-0.3
			s0-0.3,0-0.6c0-0.2,0.1-0.3,0.2-0.3h1.5c0.2,0,0.3,0,0.4,0.1s0.1,0.2,0.1,0.5c0,0.2,0,0.3,0,0.3s-0.1,0.1-0.2,0.2
			c-0.2,0.1-0.3,0.4-0.4,0.8l-1.5,7.7c-0.3,1.4-0.5,2.2-0.6,2.6s-0.3,0.7-0.6,1s-0.6,0.5-0.9,0.7s-0.8,0.2-1.2,0.2
			c-0.5,0-0.9-0.1-1.2-0.4s-0.4-0.6-0.4-1c0-0.3,0.1-0.5,0.3-0.7s0.4-0.2,0.7-0.2c0.4,0,0.7,0.2,0.9,0.7c0.1,0.2,0.2,0.4,0.4,0.4
			c0.3,0,0.5-0.2,0.5-0.5c0-0.1-0.1-0.4-0.2-1l-1.9-9.1c-0.1-0.4-0.2-0.7-0.2-0.9s-0.1-0.3-0.3-0.3c-0.1,0-0.2-0.2-0.2-0.3v-0.5
			c0-0.2,0-0.3,0.1-0.3s0.1-0.1,0.3-0.1h3.1c0.2,0,0.3,0,0.3,0.1s0.1,0.1,0.1,0.3c0,0.3,0,0.5,0,0.6s-0.1,0.2-0.2,0.2
			c-0.2,0.1-0.3,0.2-0.3,0.4c0,0.1,0,0.3,0.1,0.5L155.7,161.5z"/>
		<path d="M159,153.3v-0.4c0-0.2,0.1-0.3,0.4-0.3h2.7c0.1,0,0.2,0,0.3,0s0.1,0.1,0.1,0.3v12.3c0,0.3,0.1,0.4,0.3,0.5
			c0.1,0,0.2,0.1,0.2,0.3v0.5c0,0.2-0.1,0.3-0.4,0.3h-3.2c-0.2,0-0.3-0.1-0.3-0.3V166c0-0.2,0.1-0.4,0.3-0.5
			c0.1-0.1,0.2-0.1,0.2-0.2s0-0.1,0-0.3v-10.9c0-0.2-0.1-0.3-0.2-0.4C159,153.7,159,153.6,159,153.3z"/>
		<path d="M170.5,161.7h0.8c0.2,0,0.3,0,0.4,0.1s0.1,0.2,0.1,0.4v0.5c0,0.1,0,0.2-0.1,0.3s-0.2,0.1-0.3,0.1h-0.8v1.6
			c0,0.4,0.2,0.7,0.5,0.9c0.2,0.1,0.3,0.3,0.3,0.5v0.4c0,0.1,0,0.2-0.1,0.2s-0.2,0-0.3,0h-3.7c-0.2,0-0.3,0-0.3-0.1
			s-0.1-0.3-0.1-0.6c0-0.2,0.1-0.4,0.3-0.5c0.2-0.1,0.3-0.3,0.3-0.5v-2h-3.5c-0.2,0-0.3,0-0.3-0.1s0-0.1,0-0.3v-1c0-0.1,0-0.2,0-0.2
			s0.1-0.3,0.4-0.6l4.9-7.9c0.1-0.1,0.2-0.2,0.3-0.3c0.1,0,0.4-0.1,0.7-0.1c0.3,0,0.5,0,0.6,0.1s0.1,0.1,0.1,0.3L170.5,161.7
			L170.5,161.7z M167.4,157.4l-2.7,4.3h2.7V157.4z"/>
		<path d="M172.9,156.1c-0.1,0-0.1-0.1-0.2-0.1c-0.1-0.1-0.2-0.1-0.3-0.2s-0.1-0.2-0.1-0.4c0-0.1,0-0.2,0-0.3c0-0.2,0-0.3,0.1-0.4
			c0-0.1,0.2-0.1,0.3-0.1h2.7c0.1,0,0.2,0,0.2,0.1s0,0.1,0,0.3v8.7c0,0.8,0.2,1.1,0.6,1.1c0.3,0,0.6-0.1,0.7-0.4v-8.1
			c0-0.2-0.1-0.4-0.3-0.5c-0.1-0.1-0.2-0.1-0.2-0.2s0-0.3,0-0.7c0-0.2,0.1-0.2,0.3-0.2h2.9c0.1,0,0.2,0,0.2,0c0,0,0,0.1,0,0.3v10.1
			c0,0.2,0.1,0.3,0.2,0.4c0.2,0.1,0.3,0.3,0.3,0.5c0,0.4,0,0.5,0,0.6c0,0-0.1,0.1-0.3,0.1h-2.7c-0.2,0-0.3,0-0.4-0.1
			s-0.1-0.2-0.1-0.4v-0.2c0-0.2,0-0.4,0-0.4c-0.9,0.8-1.7,1.2-2.4,1.2c-0.5,0-1-0.2-1.4-0.5c-0.4-0.4-0.5-1.1-0.5-2.1L172.9,156.1
			L172.9,156.1z"/>
	</g>
</g>
</svg>
